<svg width="698" height="131" viewBox="0 0 698 131" fill="none" xmlns="http://www.w3.org/2000/svg">
<circle cx="68.5001" cy="56.5" r="42.5" fill="white"/>
<path fill-rule="evenodd" clip-rule="evenodd" d="M52.4427 5.8793C31.9613 12.6322 15.671 30.0169 11.381 52.7076C5.09545 85.9527 26.9505 117.999 60.1957 124.284C71.825 126.483 83.3077 125.238 93.5922 121.267L92.9191 121.503L88.069 107.648C80.0852 110.249 71.3528 110.936 62.5199 109.266C34.4951 103.967 16.0718 76.9532 21.3703 48.9283C24.8432 30.5598 37.645 16.316 53.9458 10.1731L52.4427 5.8793Z" fill="#F7941E"/>
<path fill-rule="evenodd" clip-rule="evenodd" d="M68.5001 99C91.9722 99 111 79.9721 111 56.5C111 33.0279 91.9722 14 68.5001 14C45.028 14 26.0001 33.0279 26.0001 56.5C26.0001 79.9721 45.028 99 68.5001 99ZM48.7774 72.1238C48.2071 72.9374 48.1338 73.9821 48.5574 75.2581C49.6918 78.6749 52.4201 80.9264 56.7422 82.0124C61.0644 83.0985 65.4421 82.9056 69.8753 81.4337L71.2702 80.9706L72.261 83.955C72.4549 84.5389 72.7966 84.9536 73.2863 85.1992C73.7832 85.4664 74.3236 85.5031 74.9075 85.3092L77.3079 84.5123L75.6494 79.5167L77.4335 78.9244L79.0921 83.9199L81.4925 83.123C82.0764 82.9291 82.4876 82.5765 82.726 82.0652C82.9932 81.5683 83.0299 81.0279 82.836 80.444L81.8237 77.3948C88.4775 74.9456 92.8115 72.0902 94.8258 68.8284C96.8401 65.5666 97.1544 61.8489 95.7688 57.6751C94.3759 53.4797 91.3381 50.9468 86.6554 50.0765C82.8589 49.3442 78.1969 49.2593 72.6694 49.822L69.2985 39.6687C72.2466 38.93 74.5266 39.3975 76.1387 41.0712C77.7508 42.7449 79.5299 43.2586 81.4763 42.6124L85.3365 41.3308C86.0285 41.1011 86.6632 40.5902 87.2406 39.7983C87.8108 38.9847 87.8841 37.94 87.4605 36.6641C86.3405 33.2904 83.6194 31.0606 79.2973 29.9746C74.9896 28.8597 70.6336 29.0094 66.2292 30.4237L65.2384 27.4393C65.0445 26.8554 64.6919 26.4443 64.1806 26.2059C63.6909 25.9603 63.1541 25.9344 62.5702 26.1283L60.1698 26.9252L61.8175 31.8883L60.0334 32.4807L58.3856 27.5176L55.9852 28.3145C55.4229 28.5012 55.0082 28.843 54.741 29.3398C54.4954 29.8295 54.4695 30.3663 54.6634 30.9502L55.6757 33.9995C49.0867 36.4991 44.7923 39.3655 42.7924 42.5984C40.7854 45.8098 40.4639 49.4699 41.8281 53.5788C42.9122 56.8443 45.0964 59.1563 48.3806 60.5149C51.924 62.0036 57.3999 62.3344 64.8084 61.5074L68.2332 71.8229L67.9736 71.9091C64.4198 73.0649 61.7829 72.7519 60.0629 70.97C58.3429 69.1882 56.5097 68.6203 54.5634 69.2665L50.7032 70.5481C49.9895 70.785 49.3476 71.3103 48.7774 72.1238ZM61.3513 51.0946C56.9195 51.3415 54.4164 50.5999 53.842 48.8699C53.0164 46.3829 54.5066 44.5076 58.3127 43.244L58.702 43.1147L61.3513 51.0946ZM74.3965 69.7767L72.6124 70.369L69.5215 61.0591L71.4133 60.7912L74.3965 69.7767ZM67.9562 50.3784L66.0536 50.6139L63.0812 41.6608L64.8653 41.0685L67.9562 50.3784ZM79.3272 68.1397L78.8082 68.312L76.1588 60.3321C80.6771 60.0565 83.2235 60.7837 83.7979 62.5138C84.6235 65.0007 83.1333 66.876 79.3272 68.1397Z" fill="#F7941E"/>
<path d="M123.631 84.3525L129.744 84.4491H143.815V83.4347C143.815 83.1449 144.041 83 144.494 83C144.979 83 145.222 83.1449 145.222 83.4347C145.222 86.655 145.384 89.1024 145.707 90.777C145.772 91.0346 145.545 91.1634 145.028 91.1634C144.51 91.1634 144.219 91.0346 144.154 90.777C143.637 88.7482 143.022 87.5728 142.311 87.2508C140.596 86.6067 137.847 86.2686 134.062 86.2364C133.415 86.2686 132.979 86.4457 132.752 86.7677C132.558 87.0898 132.461 87.6533 132.461 88.4584V99.8582C134.467 99.826 136.424 99.7294 138.332 99.5683C140.241 99.4073 141.276 99.2785 141.437 99.1819L141.923 96.332C141.955 96.1065 142.149 95.9938 142.505 95.9938C143.184 95.9938 143.491 96.1387 143.427 96.4286C143.265 97.6845 143.184 99.1014 143.184 100.679C143.184 102.257 143.265 103.674 143.427 104.93C143.491 105.188 143.249 105.317 142.699 105.317C142.181 105.317 141.923 105.22 141.923 105.027L141.389 102.128C141.195 102.032 140.16 101.903 138.284 101.742C136.44 101.549 134.499 101.436 132.461 101.404V110.678C132.461 113.512 132.801 114.929 133.48 114.929H135.955C140.968 114.865 144.397 114.188 146.241 112.9L146.58 110.244C146.645 109.986 146.92 109.857 147.405 109.857C147.923 109.857 148.182 109.954 148.182 110.147L147.745 117.924C147.745 118.149 147.486 118.262 146.969 118.262C146.483 118.262 146.241 118.149 146.241 117.924V116.861H134.257L123.388 116.958C123.129 116.958 123 116.684 123 116.137C123 115.589 123.129 115.316 123.388 115.316H125.474C126.283 115.316 126.817 115.171 127.076 114.881C127.334 114.559 127.464 113.963 127.464 113.094V90.1973C127.464 87.3635 127.124 85.9466 126.445 85.9466H123.631C123.372 85.9466 123.243 85.6889 123.243 85.1737C123.243 84.6262 123.372 84.3525 123.631 84.3525Z" fill="#F7941E"/>
<path d="M171.58 95.8006L175.365 95.704C175.591 95.704 175.705 95.9133 175.705 96.332C175.705 96.7506 175.591 96.9599 175.365 96.9599H173.424C173.133 96.9599 172.874 97.0726 172.648 97.298C172.421 97.5235 170.044 100.148 165.516 105.172C169.688 110.485 172.13 113.528 172.842 114.301C173.586 115.042 174.087 115.412 174.346 115.412H175.947C176.206 115.412 176.335 115.654 176.335 116.137C176.335 116.62 176.206 116.861 175.947 116.861L170.756 116.813L164.545 116.91C164.351 116.91 164.254 116.684 164.254 116.233C164.254 115.75 164.351 115.509 164.545 115.509H167.02C167.408 115.509 167.602 115.364 167.602 115.074C167.602 114.366 166.631 112.771 164.691 110.292C163.753 109.1 163.17 108.36 162.944 108.07C160.453 111 159.062 112.643 158.771 112.997C158.513 113.319 158.254 113.705 157.995 114.156C157.574 114.8 157.413 115.219 157.51 115.412H159.936C160.162 115.412 160.275 115.654 160.275 116.137C160.275 116.62 160.162 116.861 159.936 116.861L155.521 116.813L151.299 116.91C151.105 116.91 151.008 116.684 151.008 116.233C151.008 115.75 151.105 115.509 151.299 115.509H152.852C153.337 115.509 153.741 115.348 154.065 115.026C156.006 112.997 158.577 110.211 161.78 106.669C159.03 103.223 156.766 100.422 154.987 98.2641C154.243 97.4269 153.531 97.0082 152.852 97.0082H151.882C151.687 97.0082 151.59 96.7989 151.59 96.3803C151.59 95.9294 151.687 95.704 151.882 95.704L157.122 95.8006L162.944 95.704C163.138 95.704 163.235 95.9133 163.235 96.332C163.235 96.7506 163.138 96.9599 162.944 96.9599H160.033C159.774 96.9599 159.645 97.1048 159.645 97.3947C159.645 97.6845 161.23 99.7938 164.4 103.723C166.728 101.082 168.087 99.4234 168.475 98.7472C168.863 98.0387 169.057 97.5718 169.057 97.3464C169.057 97.1209 168.977 97.0082 168.815 97.0082H166.971C166.809 97.0082 166.728 96.7989 166.728 96.3803C166.728 95.9294 166.809 95.704 166.971 95.704L171.58 95.8006Z" fill="#F7941E"/>
<path d="M185.739 94.3515L185.593 98.9887H185.69C187.728 96.4125 190.477 95.1244 193.938 95.1244C196.85 95.1244 199.146 96.0904 200.828 98.0226C202.51 99.9226 203.351 102.483 203.351 105.703C203.351 108.891 202.235 111.661 200.003 114.011C197.804 116.33 195.168 117.489 192.095 117.489C190.995 117.489 189.976 117.344 189.038 117.054C188.132 116.797 187.501 116.555 187.146 116.33C186.822 116.104 186.386 115.782 185.836 115.364C185.868 115.911 185.884 117.538 185.884 120.243V124.203C185.884 127.037 186.224 128.454 186.903 128.454H189.281C189.539 128.454 189.669 128.696 189.669 129.179C189.669 129.662 189.572 129.903 189.378 129.903L184.089 129.855L178.461 130C178.234 130 178.121 129.758 178.121 129.275C178.121 128.792 178.202 128.551 178.364 128.551H181.178C181.566 128.551 181.76 128.277 181.76 127.73V103.336C181.76 100.212 181.307 98.6506 180.401 98.6506H179.431C179.172 98.6506 179.043 98.409 179.043 97.926C179.043 97.443 179.14 97.2014 179.334 97.2014C180.207 97.2014 181.065 96.9277 181.906 96.3803C182.779 95.8006 183.491 95.221 184.04 94.6413C184.59 94.0617 184.93 93.7718 185.059 93.7718C185.512 93.7718 185.739 93.9651 185.739 94.3515ZM191.949 115.75C194.149 115.75 195.782 114.816 196.85 112.949C197.949 111.049 198.499 108.907 198.499 106.524C198.499 104.141 197.836 102.145 196.51 100.534C195.184 98.8921 193.389 98.0709 191.124 98.0709C189.572 98.0709 188.326 98.409 187.388 99.0853C186.903 99.4395 186.547 99.7294 186.321 99.9548C186.094 100.148 185.949 100.261 185.884 100.293V108.939C186.272 113.48 188.294 115.75 191.949 115.75Z" fill="#F7941E"/>
<path d="M218.491 113.383C219.72 113.383 220.787 113.255 221.693 112.997C222.599 112.739 223.262 112.449 223.682 112.127L224.75 111.258C225.073 111 225.316 110.872 225.478 110.872C225.833 110.872 226.011 111.065 226.011 111.451C226.011 112.16 225.38 113.255 224.119 114.736C223.504 115.477 222.583 116.121 221.353 116.668C220.124 117.215 218.75 117.489 217.229 117.489C214.383 117.489 211.989 116.427 210.048 114.301C208.108 112.176 207.137 109.728 207.137 106.959C207.137 103.481 208.285 100.647 210.582 98.4573C212.879 96.2676 215.418 95.1727 218.2 95.1727C220.302 95.1727 222.065 95.9294 223.488 97.443C224.944 98.9243 225.672 100.889 225.672 103.336C225.672 103.851 225.558 104.222 225.332 104.447C225.106 104.64 224.588 104.769 223.779 104.834C222.971 104.866 220.998 104.898 217.86 104.93C214.722 104.962 212.021 105.043 209.757 105.172C209.757 107.909 210.647 109.97 212.426 111.355C214.237 112.707 216.259 113.383 218.491 113.383ZM221.547 101.839C221.547 100.744 221.095 99.7938 220.189 98.9887C219.283 98.1836 218.103 97.7811 216.647 97.7811C215.224 97.7811 213.833 98.3124 212.474 99.3751C211.116 100.406 210.259 101.839 209.903 103.674C210.744 103.578 212.442 103.433 214.997 103.239C217.553 103.014 219.283 102.853 220.189 102.756C221.095 102.628 221.547 102.322 221.547 101.839Z" fill="#F7941E"/>
<path d="M237.211 94.3515L237.113 98.1192H237.211C238.181 97.2175 239.313 96.493 240.607 95.9455C241.901 95.3981 243.081 95.1244 244.149 95.1244C249.518 95.1244 252.203 98.2158 252.203 104.399V111.161C252.203 113.995 252.543 115.412 253.222 115.412H255.599C255.858 115.412 255.988 115.654 255.988 116.137C255.988 116.62 255.89 116.861 255.696 116.861C255.696 116.861 253.934 116.845 250.408 116.813L244.78 116.958C244.553 116.958 244.44 116.716 244.44 116.233C244.44 115.75 244.521 115.509 244.682 115.509H247.497C247.885 115.509 248.079 115.235 248.079 114.688V106.524C248.079 103.239 247.626 100.969 246.72 99.7133C245.847 98.4251 244.343 97.7811 242.208 97.7811C240.073 97.7811 238.424 98.4251 237.259 99.7133V111.161C237.259 113.995 237.599 115.412 238.278 115.412H240.655C240.914 115.412 241.044 115.654 241.044 116.137C241.044 116.62 240.947 116.861 240.752 116.861L235.464 116.813L229.836 116.958C229.609 116.958 229.496 116.716 229.496 116.233C229.496 115.75 229.577 115.509 229.739 115.509H232.553C232.941 115.509 233.135 115.235 233.135 114.688V103.336C233.135 100.212 232.682 98.6506 231.776 98.6506H230.806C230.547 98.6506 230.418 98.409 230.418 97.926C230.418 97.443 230.515 97.2014 230.709 97.2014C231.582 97.2014 232.456 96.9277 233.329 96.3803C234.202 95.8006 234.914 95.221 235.464 94.6413C236.046 94.0617 236.402 93.7718 236.531 93.7718C236.984 93.7718 237.211 93.9651 237.211 94.3515Z" fill="#F7941E"/>
<path d="M273.872 111.403C273.872 113.303 273.064 114.8 271.446 115.895C269.829 116.958 267.985 117.489 265.915 117.489C263.877 117.489 262.373 117.215 261.403 116.668C261.403 117.054 261.37 117.296 261.306 117.393C261.241 117.521 261.047 117.586 260.723 117.586C260.4 117.586 260.222 117.457 260.19 117.199C260.093 116.427 259.899 115.219 259.608 113.577C259.349 111.934 259.219 111.016 259.219 110.823C259.219 110.598 259.3 110.437 259.462 110.34C259.656 110.244 259.866 110.211 260.093 110.244C260.319 110.244 260.449 110.324 260.481 110.485C261.581 114.124 263.521 115.943 266.303 115.943C267.371 115.943 268.276 115.654 269.02 115.074C269.797 114.462 270.185 113.657 270.185 112.659C270.185 111.628 269.845 110.743 269.166 110.002C268.487 109.229 267.662 108.585 266.691 108.07C265.721 107.555 264.751 107.023 263.78 106.476C262.81 105.928 261.985 105.22 261.306 104.35C260.626 103.449 260.287 102.402 260.287 101.211C260.287 99.3107 260.982 97.8294 262.373 96.7667C263.796 95.6718 265.575 95.1244 267.71 95.1244C268.842 95.1244 269.894 95.2854 270.864 95.6074C270.735 95.0922 270.702 94.7862 270.767 94.6896C270.832 94.5608 270.993 94.4964 271.252 94.4964C271.511 94.4964 271.689 94.5286 271.786 94.593C271.883 94.6574 271.98 94.8828 272.077 95.2693C272.174 95.6235 272.271 96.0904 272.368 96.6701C272.465 97.2175 272.611 97.926 272.805 98.7955C272.999 99.6328 273.112 100.164 273.144 100.39C273.209 100.583 273.177 100.728 273.047 100.824C272.918 100.889 272.708 100.921 272.417 100.921C272.158 100.921 271.98 100.792 271.883 100.534C270.913 97.9582 269.376 96.6701 267.274 96.6701C266.239 96.6701 265.414 96.976 264.799 97.5879C264.185 98.1675 263.877 98.9243 263.877 99.8582C263.877 100.76 264.217 101.549 264.896 102.225C265.575 102.901 266.4 103.481 267.371 103.964C268.373 104.447 269.36 104.978 270.33 105.558C271.333 106.106 272.174 106.878 272.853 107.877C273.533 108.875 273.872 110.05 273.872 111.403Z" fill="#F7941E"/>
<path d="M288.711 113.383C289.94 113.383 291.008 113.255 291.913 112.997C292.819 112.739 293.482 112.449 293.903 112.127L294.97 111.258C295.294 111 295.536 110.872 295.698 110.872C296.054 110.872 296.232 111.065 296.232 111.451C296.232 112.16 295.601 113.255 294.339 114.736C293.725 115.477 292.803 116.121 291.574 116.668C290.345 117.215 288.97 117.489 287.45 117.489C284.603 117.489 282.21 116.427 280.269 114.301C278.328 112.176 277.358 109.728 277.358 106.959C277.358 103.481 278.506 100.647 280.803 98.4573C283.099 96.2676 285.638 95.1727 288.42 95.1727C290.523 95.1727 292.285 95.9294 293.709 97.443C295.164 98.9243 295.892 100.889 295.892 103.336C295.892 103.851 295.779 104.222 295.552 104.447C295.326 104.64 294.808 104.769 294 104.834C293.191 104.866 291.218 104.898 288.08 104.93C284.943 104.962 282.242 105.043 279.978 105.172C279.978 107.909 280.867 109.97 282.646 111.355C284.458 112.707 286.479 113.383 288.711 113.383ZM291.768 101.839C291.768 100.744 291.315 99.7938 290.409 98.9887C289.504 98.1836 288.323 97.7811 286.867 97.7811C285.444 97.7811 284.053 98.3124 282.695 99.3751C281.336 100.406 280.479 101.839 280.123 103.674C280.964 103.578 282.662 103.433 285.218 103.239C287.773 103.014 289.504 102.853 290.409 102.756C291.315 102.628 291.768 102.322 291.768 101.839Z" fill="#F7941E"/>
<path d="M315 111.403C315 113.303 314.191 114.8 312.574 115.895C310.957 116.958 309.113 117.489 307.043 117.489C305.005 117.489 303.501 117.215 302.531 116.668C302.531 117.054 302.498 117.296 302.433 117.393C302.369 117.521 302.175 117.586 301.851 117.586C301.528 117.586 301.35 117.457 301.318 117.199C301.221 116.427 301.026 115.219 300.735 113.577C300.477 111.934 300.347 111.016 300.347 110.823C300.347 110.598 300.428 110.437 300.59 110.34C300.784 110.244 300.994 110.211 301.22 110.244C301.447 110.244 301.576 110.324 301.609 110.485C302.708 114.124 304.649 115.943 307.431 115.943C308.498 115.943 309.404 115.654 310.148 115.074C310.924 114.462 311.313 113.657 311.313 112.659C311.313 111.628 310.973 110.743 310.294 110.002C309.614 109.229 308.79 108.585 307.819 108.07C306.849 107.555 305.878 107.023 304.908 106.476C303.938 105.928 303.113 105.22 302.433 104.35C301.754 103.449 301.415 102.402 301.415 101.211C301.415 99.3107 302.11 97.8294 303.501 96.7667C304.924 95.6718 306.703 95.1244 308.838 95.1244C309.97 95.1244 311.021 95.2854 311.992 95.6074C311.862 95.0922 311.83 94.7862 311.895 94.6896C311.959 94.5608 312.121 94.4964 312.38 94.4964C312.639 94.4964 312.817 94.5286 312.914 94.593C313.011 94.6574 313.108 94.8828 313.205 95.2693C313.302 95.6235 313.399 96.0904 313.496 96.6701C313.593 97.2175 313.739 97.926 313.933 98.7955C314.127 99.6328 314.24 100.164 314.272 100.39C314.337 100.583 314.305 100.728 314.175 100.824C314.046 100.889 313.836 100.921 313.544 100.921C313.286 100.921 313.108 100.792 313.011 100.534C312.04 97.9582 310.504 96.6701 308.401 96.6701C307.366 96.6701 306.541 96.976 305.927 97.5879C305.312 98.1675 305.005 98.9243 305.005 99.8582C305.005 100.76 305.345 101.549 306.024 102.225C306.703 102.901 307.528 103.481 308.498 103.964C309.501 104.447 310.488 104.978 311.458 105.558C312.461 106.106 313.302 106.878 313.981 107.877C314.66 108.875 315 110.05 315 111.403Z" fill="#F7941E"/>
<path d="M123.922 15.9694L132.862 16.1101H153.437V14.633C153.437 14.211 153.768 14 154.43 14C155.14 14 155.494 14.211 155.494 14.633C155.494 19.3221 155.731 22.8858 156.204 25.3242C156.298 25.6993 155.967 25.8869 155.21 25.8869C154.454 25.8869 154.028 25.6993 153.933 25.3242C153.177 22.37 152.278 20.6585 151.237 20.1896C148.731 19.2518 144.71 18.7594 139.176 18.7125C138.23 18.7594 137.592 19.0173 137.261 19.4862C136.977 19.9551 136.835 20.7757 136.835 21.948V38.5474C139.767 38.5005 142.629 38.3598 145.42 38.1254C148.21 37.8909 149.724 37.7034 149.96 37.5627L150.67 33.4128C150.717 33.0846 151.001 32.9205 151.521 32.9205C152.514 32.9205 152.964 33.1315 152.869 33.5535C152.633 35.3823 152.514 37.4455 152.514 39.7431C152.514 42.0408 152.633 44.104 152.869 45.9327C152.964 46.3079 152.609 46.4954 151.805 46.4954C151.048 46.4954 150.67 46.3547 150.67 46.0734L149.889 41.8532C149.606 41.7125 148.092 41.525 145.349 41.2905C142.653 41.0092 139.815 40.8451 136.835 40.7982V54.3028C136.835 58.4292 137.332 60.4924 138.325 60.4924H141.943C149.274 60.3986 154.288 59.4139 156.984 57.5382L157.481 53.6697C157.575 53.2946 157.977 53.107 158.687 53.107C159.444 53.107 159.822 53.2477 159.822 53.5291L159.184 64.8532C159.184 65.1814 158.805 65.3456 158.048 65.3456C157.339 65.3456 156.984 65.1814 156.984 64.8532V63.3058H139.46L123.568 63.4465C123.189 63.4465 123 63.0479 123 62.2508C123 61.4536 123.189 61.055 123.568 61.055H126.618C127.801 61.055 128.581 60.844 128.96 60.422C129.338 59.9531 129.527 59.0856 129.527 57.8196V24.4801C129.527 20.3537 129.031 18.2905 128.037 18.2905H123.922C123.544 18.2905 123.355 17.9154 123.355 17.1651C123.355 16.368 123.544 15.9694 123.922 15.9694Z" fill="#606060"/>
<path d="M194.037 32.6391L199.571 32.4985C199.902 32.4985 200.068 32.8033 200.068 33.4128C200.068 34.0224 199.902 34.3272 199.571 34.3272H196.733C196.308 34.3272 195.929 34.4913 195.598 34.8196C195.267 35.1478 191.791 38.9694 185.169 46.2844C191.27 54.0214 194.841 58.4526 195.882 59.578C196.97 60.6565 197.703 61.1957 198.081 61.1957H200.423C200.801 61.1957 200.99 61.5474 200.99 62.2508C200.99 62.9541 200.801 63.3058 200.423 63.3058L192.831 63.2355L183.75 63.3761C183.466 63.3761 183.324 63.0479 183.324 62.3914C183.324 61.6881 183.466 61.3364 183.75 61.3364H187.368C187.936 61.3364 188.22 61.1254 188.22 60.7034C188.22 59.6718 186.801 57.3507 183.963 53.7401C182.591 52.0051 181.74 50.9266 181.409 50.5046C177.767 54.7717 175.733 57.1631 175.307 57.6789C174.929 58.1478 174.55 58.7105 174.172 59.367C173.557 60.3048 173.321 60.9144 173.462 61.1957H177.01C177.341 61.1957 177.506 61.5474 177.506 62.2508C177.506 62.9541 177.341 63.3058 177.01 63.3058L170.554 63.2355L164.381 63.3761C164.097 63.3761 163.955 63.0479 163.955 62.3914C163.955 61.6881 164.097 61.3364 164.381 61.3364H166.651C167.361 61.3364 167.952 61.1019 168.425 60.633C171.263 57.6789 175.023 53.6228 179.706 48.4648C175.685 43.4475 172.375 39.368 169.773 36.2263C168.685 35.0071 167.645 34.3976 166.651 34.3976H165.232C164.949 34.3976 164.807 34.0928 164.807 33.4832C164.807 32.8267 164.949 32.4985 165.232 32.4985L172.895 32.6391L181.409 32.4985C181.692 32.4985 181.834 32.8033 181.834 33.4128C181.834 34.0224 181.692 34.3272 181.409 34.3272H177.152C176.773 34.3272 176.584 34.5382 176.584 34.9602C176.584 35.3823 178.902 38.4536 183.537 44.1743C186.943 40.3293 188.929 37.9144 189.497 36.9297C190.064 35.8981 190.348 35.2181 190.348 34.8899C190.348 34.5617 190.23 34.3976 189.993 34.3976H187.297C187.061 34.3976 186.943 34.0928 186.943 33.4832C186.943 32.8267 187.061 32.4985 187.297 32.4985L194.037 32.6391Z" fill="#606060"/>
<path d="M214.74 30.5291L214.528 37.2813H214.669C217.649 33.5301 221.67 31.6544 226.731 31.6544C230.988 31.6544 234.346 33.0612 236.805 35.8746C239.265 38.6412 240.495 42.369 240.495 47.0581C240.495 51.7003 238.863 55.7329 235.599 59.156C232.383 62.5321 228.528 64.2202 224.035 64.2202C222.426 64.2202 220.937 64.0092 219.565 63.5872C218.241 63.212 217.318 62.8603 216.798 62.5321C216.325 62.2039 215.686 61.735 214.882 61.1254C214.93 61.9225 214.953 64.2905 214.953 68.2294V73.9969C214.953 78.1233 215.45 80.1865 216.443 80.1865H219.92C220.298 80.1865 220.487 80.5382 220.487 81.2416C220.487 81.945 220.345 82.2966 220.062 82.2966L212.328 82.2263L204.098 82.4373C203.767 82.4373 203.602 82.0856 203.602 81.3823C203.602 80.6789 203.72 80.3272 203.956 80.3272H208.071C208.639 80.3272 208.923 79.9286 208.923 79.1315V43.6116C208.923 39.0632 208.26 36.789 206.936 36.789H205.517C205.139 36.789 204.95 36.4373 204.95 35.7339C204.95 35.0306 205.091 34.6789 205.375 34.6789C206.652 34.6789 207.906 34.2803 209.136 33.4832C210.413 32.6391 211.453 31.7951 212.257 30.9511C213.061 30.107 213.558 29.685 213.747 29.685C214.409 29.685 214.74 29.9664 214.74 30.5291ZM223.822 61.6881C227.038 61.6881 229.427 60.3282 230.988 57.6086C232.596 54.842 233.4 51.7238 233.4 48.2538C233.4 44.7839 232.43 41.8767 230.491 39.5321C228.552 37.1407 225.927 35.945 222.616 35.945C220.345 35.945 218.524 36.4373 217.153 37.422C216.443 37.9378 215.923 38.3598 215.592 38.6881C215.261 38.9694 215.048 39.1335 214.953 39.1804V51.7706C215.521 58.3823 218.477 61.6881 223.822 61.6881Z" fill="#606060"/>
<path d="M262.633 58.2416C264.43 58.2416 265.991 58.054 267.315 57.6789C268.64 57.3038 269.609 56.8818 270.224 56.4128L271.785 55.1468C272.258 54.7717 272.613 54.5841 272.849 54.5841C273.369 54.5841 273.63 54.8654 273.63 55.4281C273.63 56.4597 272.707 58.054 270.863 60.211C269.964 61.2895 268.616 62.2273 266.819 63.0245C265.021 63.8216 263.011 64.2202 260.788 64.2202C256.626 64.2202 253.126 62.6728 250.288 59.578C247.45 56.4832 246.031 52.9195 246.031 48.8869C246.031 43.8226 247.71 39.6962 251.068 36.5076C254.426 33.3191 258.139 31.7248 262.207 31.7248C265.281 31.7248 267.859 32.8267 269.94 35.0306C272.069 37.1876 273.133 40.0479 273.133 43.6116C273.133 44.3619 272.967 44.9011 272.636 45.2294C272.305 45.5107 271.548 45.6983 270.366 45.792C269.184 45.8389 266.298 45.8858 261.71 45.9327C257.122 45.9796 253.173 46.0968 249.862 46.2844C249.862 50.2701 251.163 53.2712 253.764 55.2875C256.413 57.2569 259.369 58.2416 262.633 58.2416ZM267.102 41.4312C267.102 39.8369 266.44 38.4536 265.116 37.2813C263.791 36.1091 262.065 35.5229 259.937 35.5229C257.855 35.5229 255.822 36.2966 253.835 37.844C251.849 39.3445 250.595 41.4312 250.075 44.104C251.305 43.9633 253.788 43.7523 257.524 43.4709C261.261 43.1427 263.791 42.9083 265.116 42.7676C266.44 42.58 267.102 42.1346 267.102 41.4312Z" fill="#606060"/>
<path d="M290.006 30.5291L289.864 36.0153H290.006C291.425 34.7023 293.08 33.6473 294.972 32.8502C296.864 32.053 298.591 31.6544 300.151 31.6544C308.003 31.6544 311.929 36.156 311.929 45.159V55.0061C311.929 59.1325 312.426 61.1957 313.419 61.1957H316.895C317.274 61.1957 317.463 61.5474 317.463 62.2508C317.463 62.9541 317.321 63.3058 317.037 63.3058C317.037 63.3058 314.459 63.2824 309.304 63.2355L301.074 63.4465C300.743 63.4465 300.577 63.0948 300.577 62.3914C300.577 61.6881 300.695 61.3364 300.932 61.3364H305.047C305.614 61.3364 305.898 60.9378 305.898 60.1407V48.2538C305.898 43.4709 305.236 40.1651 303.912 38.3364C302.635 36.4608 300.435 35.5229 297.314 35.5229C294.192 35.5229 291.78 36.4608 290.077 38.3364V55.0061C290.077 59.1325 290.573 61.1957 291.567 61.1957H295.043C295.422 61.1957 295.611 61.5474 295.611 62.2508C295.611 62.9541 295.469 63.3058 295.185 63.3058L287.452 63.2355L279.222 63.4465C278.891 63.4465 278.725 63.0948 278.725 62.3914C278.725 61.6881 278.843 61.3364 279.08 61.3364H283.195C283.762 61.3364 284.046 60.9378 284.046 60.1407V43.6116C284.046 39.0632 283.384 36.789 282.06 36.789H280.641C280.262 36.789 280.073 36.4373 280.073 35.7339C280.073 35.0306 280.215 34.6789 280.499 34.6789C281.776 34.6789 283.053 34.2803 284.33 33.4832C285.607 32.6391 286.648 31.7951 287.452 30.9511C288.303 30.107 288.823 29.685 289.013 29.685C289.675 29.685 290.006 29.9664 290.006 30.5291Z" fill="#606060"/>
<path d="M343.615 55.3578C343.615 58.1244 342.433 60.3048 340.068 61.8991C337.703 63.4465 335.007 64.2202 331.98 64.2202C329 64.2202 326.8 63.8216 325.381 63.0245C325.381 63.5872 325.334 63.9388 325.239 64.0795C325.145 64.2671 324.861 64.3609 324.388 64.3609C323.915 64.3609 323.655 64.1733 323.608 63.7982C323.466 62.6728 323.182 60.9144 322.756 58.5229C322.378 56.1315 322.189 54.7951 322.189 54.5138C322.189 54.1855 322.307 53.9511 322.543 53.8104C322.827 53.6697 323.135 53.6228 323.466 53.6697C323.797 53.6697 323.986 53.787 324.033 54.0214C325.641 59.3201 328.479 61.9694 332.547 61.9694C334.108 61.9694 335.432 61.5474 336.52 60.7034C337.655 59.8124 338.223 58.6402 338.223 57.1865C338.223 55.686 337.726 54.3965 336.733 53.318C335.74 52.1927 334.534 51.2548 333.115 50.5046C331.696 49.7543 330.277 48.9806 328.858 48.1835C327.439 47.3863 326.233 46.3547 325.239 45.0887C324.246 43.7757 323.75 42.2518 323.75 40.5168C323.75 37.7503 324.766 35.5933 326.8 34.0459C328.881 32.4516 331.483 31.6544 334.605 31.6544C336.26 31.6544 337.797 31.8889 339.216 32.3578C339.027 31.6075 338.98 31.1621 339.074 31.0214C339.169 30.8338 339.405 30.7401 339.784 30.7401C340.162 30.7401 340.422 30.787 340.564 30.8807C340.706 30.9745 340.848 31.3028 340.99 31.8654C341.132 32.3812 341.274 33.0612 341.416 33.9052C341.557 34.7023 341.77 35.7339 342.054 37C342.338 38.2192 342.503 38.9929 342.551 39.3211C342.645 39.6024 342.598 39.8135 342.409 39.9541C342.22 40.0479 341.912 40.0948 341.487 40.0948C341.108 40.0948 340.848 39.9072 340.706 39.5321C339.287 35.7808 337.04 33.9052 333.966 33.9052C332.452 33.9052 331.246 34.3507 330.348 35.2416C329.449 36.0856 329 37.1876 329 38.5474C329 39.8603 329.496 41.0092 330.49 41.9939C331.483 42.9786 332.689 43.8226 334.108 44.526C335.574 45.2294 337.017 46.0031 338.436 46.8471C339.902 47.6442 341.132 48.7696 342.125 50.2232C343.118 51.6769 343.615 53.3884 343.615 55.3578Z" fill="#606060"/>
<path d="M365.313 58.2416C367.111 58.2416 368.672 58.054 369.996 57.6789C371.32 57.3038 372.29 56.8818 372.905 56.4128L374.466 55.1468C374.939 54.7717 375.294 54.5841 375.53 54.5841C376.05 54.5841 376.31 54.8654 376.31 55.4281C376.31 56.4597 375.388 58.054 373.543 60.211C372.645 61.2895 371.297 62.2273 369.499 63.0245C367.702 63.8216 365.692 64.2202 363.469 64.2202C359.307 64.2202 355.806 62.6728 352.969 59.578C350.131 56.4832 348.712 52.9195 348.712 48.8869C348.712 43.8226 350.391 39.6962 353.749 36.5076C357.107 33.3191 360.82 31.7248 364.888 31.7248C367.962 31.7248 370.54 32.8267 372.621 35.0306C374.75 37.1876 375.814 40.0479 375.814 43.6116C375.814 44.3619 375.648 44.9011 375.317 45.2294C374.986 45.5107 374.229 45.6983 373.047 45.792C371.864 45.8389 368.979 45.8858 364.391 45.9327C359.803 45.9796 355.854 46.0968 352.543 46.2844C352.543 50.2701 353.844 53.2712 356.445 55.2875C359.094 57.2569 362.05 58.2416 365.313 58.2416ZM369.783 41.4312C369.783 39.8369 369.121 38.4536 367.797 37.2813C366.472 36.1091 364.746 35.5229 362.617 35.5229C360.536 35.5229 358.502 36.2966 356.516 37.844C354.529 39.3445 353.276 41.4312 352.756 44.104C353.985 43.9633 356.469 43.7523 360.205 43.4709C363.942 43.1427 366.472 42.9083 367.797 42.7676C369.121 42.58 369.783 42.1346 369.783 41.4312Z" fill="#606060"/>
<path d="M403.755 55.3578C403.755 58.1244 402.572 60.3048 400.207 61.8991C397.842 63.4465 395.146 64.2202 392.119 64.2202C389.139 64.2202 386.94 63.8216 385.521 63.0245C385.521 63.5872 385.474 63.9388 385.379 64.0795C385.284 64.2671 385.001 64.3609 384.528 64.3609C384.055 64.3609 383.795 64.1733 383.747 63.7982C383.605 62.6728 383.322 60.9144 382.896 58.5229C382.517 56.1315 382.328 54.7951 382.328 54.5138C382.328 54.1855 382.447 53.9511 382.683 53.8104C382.967 53.6697 383.274 53.6228 383.605 53.6697C383.936 53.6697 384.126 53.787 384.173 54.0214C385.781 59.3201 388.619 61.9694 392.687 61.9694C394.248 61.9694 395.572 61.5474 396.66 60.7034C397.795 59.8124 398.363 58.6402 398.363 57.1865C398.363 55.686 397.866 54.3965 396.873 53.318C395.879 52.1927 394.673 51.2548 393.254 50.5046C391.835 49.7543 390.416 48.9806 388.997 48.1835C387.578 47.3863 386.372 46.3547 385.379 45.0887C384.386 43.7757 383.889 42.2518 383.889 40.5168C383.889 37.7503 384.906 35.5933 386.94 34.0459C389.021 32.4516 391.623 31.6544 394.744 31.6544C396.4 31.6544 397.937 31.8889 399.356 32.3578C399.167 31.6075 399.119 31.1621 399.214 31.0214C399.309 30.8338 399.545 30.7401 399.923 30.7401C400.302 30.7401 400.562 30.787 400.704 30.8807C400.846 30.9745 400.988 31.3028 401.13 31.8654C401.271 32.3812 401.413 33.0612 401.555 33.9052C401.697 34.7023 401.91 35.7339 402.194 37C402.478 38.2192 402.643 38.9929 402.69 39.3211C402.785 39.6024 402.738 39.8135 402.549 39.9541C402.359 40.0479 402.052 40.0948 401.626 40.0948C401.248 40.0948 400.988 39.9072 400.846 39.5321C399.427 35.7808 397.18 33.9052 394.106 33.9052C392.592 33.9052 391.386 34.3507 390.487 35.2416C389.589 36.0856 389.139 37.1876 389.139 38.5474C389.139 39.8603 389.636 41.0092 390.629 41.9939C391.623 42.9786 392.829 43.8226 394.248 44.526C395.714 45.2294 397.156 46.0031 398.575 46.8471C400.042 47.6442 401.271 48.7696 402.265 50.2232C403.258 51.6769 403.755 53.3884 403.755 55.3578Z" fill="#606060"/>
<path d="M481.131 63.2355L471.837 63.4465C471.458 63.4465 471.269 63.0479 471.269 62.2508C471.269 61.4536 471.458 61.055 471.837 61.055H474.533C475.431 61.055 476.07 60.8675 476.448 60.4924C476.827 60.1172 476.992 59.5311 476.945 58.7339C476.898 57.8899 476.685 54.9592 476.306 49.9419C475.171 35.9684 474.604 27.9735 474.604 25.9572H474.32C473.516 27.739 470.891 33.6942 466.445 43.8226C461.998 53.9042 459.231 60.0703 458.144 62.3211C457.907 62.6962 457.481 62.8838 456.867 62.8838C456.252 62.8838 455.85 62.6962 455.66 62.3211C454.478 60.4924 452.089 55.1702 448.495 46.3547C444.9 37.4924 442.18 30.4822 440.336 25.3242H440.052C438.869 41.8298 438.278 51.9113 438.278 55.5688C438.278 59.1794 438.869 60.9847 440.052 60.9847H443.174C443.788 60.9847 444.096 61.3833 444.096 62.1804C444.096 62.9307 443.788 63.3058 443.174 63.3058L435.724 63.2355L426.785 63.4465C426.359 63.4465 426.146 63.0479 426.146 62.2508C426.146 61.4536 426.359 61.055 426.785 61.055H429.126C430.403 61.055 431.278 60.9613 431.751 60.7737C432.271 60.5392 432.602 60 432.744 59.156C433.217 56.4363 433.95 50.4577 434.944 41.2202C435.984 31.42 436.504 25.5821 436.504 23.7064C436.504 21.7839 436.363 20.4006 436.079 19.5566C435.842 18.6656 435.369 18.2202 434.66 18.2202H431.112C430.734 18.2202 430.545 17.8451 430.545 17.0948C430.545 16.3445 430.734 15.9694 431.112 15.9694L444.522 16.1101C445.136 18.1733 447.289 24.2457 450.978 34.3272C454.714 44.3619 457.174 51.0673 458.356 54.4434H458.64C459.965 51.1611 461.857 46.5423 464.316 40.5872C469.093 28.9582 472.239 20.7992 473.752 16.1101L485.672 15.8991C486.097 15.8991 486.31 16.2977 486.31 17.0948C486.31 17.8451 486.097 18.2202 485.672 18.2202H482.975C482.077 18.2202 481.486 18.4781 481.202 18.9939C480.918 19.4628 480.776 20.002 480.776 20.6116C480.776 21.1743 480.776 21.7604 480.776 22.37C480.823 22.9796 481.273 27.739 482.124 36.6483C483.023 45.5107 483.756 52.263 484.324 56.9052C484.607 59.6249 485.151 60.9847 485.955 60.9847H490.425C490.945 60.9847 491.205 61.3833 491.205 62.1804C491.205 62.9307 490.945 63.3058 490.425 63.3058L481.131 63.2355Z" fill="#606060"/>
<path d="M519.435 40.5168C519.435 40.5168 519.199 45.2294 518.726 54.6544C518.726 57.7961 519.766 59.367 521.847 59.367C522.699 59.367 523.408 59.1325 523.976 58.6636C524.591 58.1478 524.945 57.8899 525.04 57.8899C525.513 57.8899 525.749 58.1244 525.749 58.5933C525.749 59.8124 525.04 61.0316 523.621 62.2508C522.249 63.4699 520.712 64.0795 519.009 64.0795C517.307 64.0795 516.006 63.3996 515.107 62.0398C514.256 60.633 513.83 58.9215 513.83 56.9052C513.83 56.7176 513.83 56.5066 513.83 56.2722H513.617C512.766 58.5698 511.323 60.4689 509.289 61.9694C507.256 63.4699 505.104 64.2202 502.833 64.2202C500.61 64.2202 498.907 63.7747 497.725 62.8838C496.59 61.946 496.022 60.633 496.022 58.945C496.022 56.2722 497.559 53.7635 500.634 51.419C503.708 49.0744 507.989 47.105 513.475 45.5107C513.57 43.9164 513.617 42.9786 513.617 42.6972C513.617 40.1651 513.121 38.0785 512.127 36.4373C511.181 34.7961 509.739 33.9755 507.8 33.9755C505.86 33.9755 504.276 34.5382 503.046 35.6636C501.864 36.7421 501.272 38.3129 501.272 40.3761C501.272 41.0326 501.296 41.5484 501.343 41.9235C501.012 42.3925 500.374 42.6269 499.428 42.6269C498.482 42.6269 497.654 42.3456 496.945 41.7829C496.235 41.2202 495.88 40.3996 495.88 39.3211C495.88 37.211 497.228 35.4057 499.924 33.9052C502.62 32.4047 505.458 31.6544 508.438 31.6544C515.769 31.6544 519.435 34.6086 519.435 40.5168ZM505.742 60.3517C507.681 60.3517 509.408 59.2029 510.921 56.9052C512.435 54.6075 513.286 51.4893 513.475 47.5505C509.455 49.0041 506.641 50.5046 505.033 52.052C503.424 53.5994 502.62 55.264 502.62 57.0459C502.62 59.2497 503.661 60.3517 505.742 60.3517Z" fill="#606060"/>
<path d="M539.918 30.5291L539.776 36.0153H539.918C541.337 34.7023 542.992 33.6473 544.884 32.8502C546.776 32.053 548.503 31.6544 550.064 31.6544C557.915 31.6544 561.841 36.156 561.841 45.159V55.0061C561.841 59.1325 562.338 61.1957 563.331 61.1957H566.807C567.186 61.1957 567.375 61.5474 567.375 62.2508C567.375 62.9541 567.233 63.3058 566.949 63.3058C566.949 63.3058 564.372 63.2824 559.216 63.2355L550.986 63.4465C550.655 63.4465 550.489 63.0948 550.489 62.3914C550.489 61.6881 550.608 61.3364 550.844 61.3364H554.959C555.527 61.3364 555.81 60.9378 555.81 60.1407V48.2538C555.81 43.4709 555.148 40.1651 553.824 38.3364C552.547 36.4608 550.347 35.5229 547.226 35.5229C544.104 35.5229 541.692 36.4608 539.989 38.3364V55.0061C539.989 59.1325 540.486 61.1957 541.479 61.1957H544.955C545.334 61.1957 545.523 61.5474 545.523 62.2508C545.523 62.9541 545.381 63.3058 545.097 63.3058L537.364 63.2355L529.134 63.4465C528.803 63.4465 528.637 63.0948 528.637 62.3914C528.637 61.6881 528.756 61.3364 528.992 61.3364H533.107C533.675 61.3364 533.958 60.9378 533.958 60.1407V43.6116C533.958 39.0632 533.296 36.789 531.972 36.789H530.553C530.175 36.789 529.985 36.4373 529.985 35.7339C529.985 35.0306 530.127 34.6789 530.411 34.6789C531.688 34.6789 532.965 34.2803 534.242 33.4832C535.519 32.6391 536.56 31.7951 537.364 30.9511C538.215 30.107 538.736 29.685 538.925 29.685C539.587 29.685 539.918 29.9664 539.918 30.5291Z" fill="#606060"/>
<path d="M595.372 40.5168C595.372 40.5168 595.135 45.2294 594.662 54.6544C594.662 57.7961 595.703 59.367 597.784 59.367C598.635 59.367 599.345 59.1325 599.912 58.6636C600.527 58.1478 600.882 57.8899 600.977 57.8899C601.45 57.8899 601.686 58.1244 601.686 58.5933C601.686 59.8124 600.977 61.0316 599.558 62.2508C598.186 63.4699 596.649 64.0795 594.946 64.0795C593.243 64.0795 591.943 63.3996 591.044 62.0398C590.193 60.633 589.767 58.9215 589.767 56.9052C589.767 56.7176 589.767 56.5066 589.767 56.2722H589.554C588.703 58.5698 587.26 60.4689 585.226 61.9694C583.192 63.4699 581.04 64.2202 578.77 64.2202C576.547 64.2202 574.844 63.7747 573.662 62.8838C572.527 61.946 571.959 60.633 571.959 58.945C571.959 56.2722 573.496 53.7635 576.571 51.419C579.645 49.0744 583.925 47.105 589.412 45.5107C589.507 43.9164 589.554 42.9786 589.554 42.6972C589.554 40.1651 589.057 38.0785 588.064 36.4373C587.118 34.7961 585.676 33.9755 583.736 33.9755C581.797 33.9755 580.213 34.5382 578.983 35.6636C577.8 36.7421 577.209 38.3129 577.209 40.3761C577.209 41.0326 577.233 41.5484 577.28 41.9235C576.949 42.3925 576.31 42.6269 575.364 42.6269C574.418 42.6269 573.591 42.3456 572.881 41.7829C572.172 41.2202 571.817 40.3996 571.817 39.3211C571.817 37.211 573.165 35.4057 575.861 33.9052C578.557 32.4047 581.395 31.6544 584.375 31.6544C591.706 31.6544 595.372 34.6086 595.372 40.5168ZM581.679 60.3517C583.618 60.3517 585.344 59.2029 586.858 56.9052C588.372 54.6075 589.223 51.4893 589.412 47.5505C585.392 49.0041 582.577 50.5046 580.969 52.052C579.361 53.5994 578.557 55.264 578.557 57.0459C578.557 59.2497 579.598 60.3517 581.679 60.3517Z" fill="#606060"/>
<path d="M616.226 60.7737L624.598 60.422C628.004 60.422 630.818 61.0785 633.041 62.3914C635.311 63.7044 636.446 65.6738 636.446 68.2997C636.446 72.051 634.223 75.4271 629.777 78.4281C625.331 81.476 620.578 83 615.517 83C607.76 83 603.881 80.6789 603.881 76.0367C603.881 74.1142 604.78 72.1682 606.577 70.1988C608.375 68.2294 610.503 66.8226 612.963 65.9786V65.7676C607.996 65.158 605.513 63.423 605.513 60.5627C605.513 59.3904 606.081 58.1244 607.216 56.7645C608.351 55.3578 610.054 54.3965 612.324 53.8807V53.7401C610.148 52.9429 608.375 51.6065 607.003 49.7309C605.678 47.8552 605.016 45.7686 605.016 43.4709C605.016 39.9072 606.293 37.0469 608.848 34.8899C611.402 32.7329 614.452 31.6544 618 31.6544C621.595 31.6544 624.645 33.0143 627.152 35.7339C629.328 33.2018 631.48 31.9358 633.608 31.9358C634.791 31.9358 635.713 32.2406 636.375 32.8502C637.085 33.4597 637.44 34.3038 637.44 35.3823C637.44 36.4608 636.777 37.3751 635.453 38.1254C633.703 36.7187 632.166 36.0153 630.841 36.0153C630.368 36.0153 629.895 36.156 629.422 36.4373C628.949 36.7187 628.713 36.9766 628.713 37.211C628.713 37.3986 628.949 38.1254 629.422 39.3914C629.943 40.6106 630.203 41.9235 630.203 43.3303C630.203 47.0815 629.02 49.895 626.656 51.7706C624.291 53.6463 621.263 54.631 617.574 54.7248C615.871 54.7248 614.405 54.9592 613.175 55.4281C611 56.3191 609.912 57.3507 609.912 58.5229C609.912 60.0234 612.017 60.7737 616.226 60.7737ZM622.966 65.6269L616.51 65.9786C614.429 66.7288 612.679 67.9011 611.26 69.4954C609.841 71.1366 609.131 72.8716 609.131 74.7003C609.131 78.5923 611.804 80.5382 617.148 80.5382C620.317 80.5382 623.51 79.5535 626.726 77.5841C629.99 75.6147 631.622 73.2232 631.622 70.4098C631.622 68.7686 630.77 67.5494 629.068 66.7523C627.412 66.002 625.378 65.6269 622.966 65.6269ZM617.432 52.4037C621.926 52.4037 624.172 49.3792 624.172 43.3303C624.172 40.7982 623.652 38.6177 622.611 36.789C621.618 34.9134 619.939 33.9755 617.574 33.9755C613.223 33.9755 611.047 37.0938 611.047 43.3303C611.047 45.8155 611.544 47.949 612.537 49.7309C613.53 51.5127 615.162 52.4037 617.432 52.4037Z" fill="#606060"/>
<path d="M657.005 58.2416C658.802 58.2416 660.363 58.054 661.687 57.6789C663.012 57.3038 663.981 56.8818 664.596 56.4128L666.157 55.1468C666.63 54.7717 666.985 54.5841 667.221 54.5841C667.742 54.5841 668.002 54.8654 668.002 55.4281C668.002 56.4597 667.079 58.054 665.235 60.211C664.336 61.2895 662.988 62.2273 661.191 63.0245C659.393 63.8216 657.383 64.2202 655.16 64.2202C650.998 64.2202 647.498 62.6728 644.66 59.578C641.822 56.4832 640.403 52.9195 640.403 48.8869C640.403 43.8226 642.082 39.6962 645.44 36.5076C648.798 33.3191 652.511 31.7248 656.579 31.7248C659.653 31.7248 662.231 32.8267 664.312 35.0306C666.441 37.1876 667.505 40.0479 667.505 43.6116C667.505 44.3619 667.339 44.9011 667.008 45.2294C666.677 45.5107 665.921 45.6983 664.738 45.792C663.556 45.8389 660.67 45.8858 656.082 45.9327C651.494 45.9796 647.545 46.0968 644.234 46.2844C644.234 50.2701 645.535 53.2712 648.136 55.2875C650.785 57.2569 653.741 58.2416 657.005 58.2416ZM661.474 41.4312C661.474 39.8369 660.812 38.4536 659.488 37.2813C658.164 36.1091 656.437 35.5229 654.309 35.5229C652.228 35.5229 650.194 36.2966 648.207 37.844C646.221 39.3445 644.967 41.4312 644.447 44.104C645.677 43.9633 648.16 43.7523 651.896 43.4709C655.633 43.1427 658.164 42.9083 659.488 42.7676C660.812 42.58 661.474 42.1346 661.474 41.4312Z" fill="#606060"/>
<path d="M684.449 30.5291L684.307 36.8593H684.449C685.537 35.6871 687.027 34.5382 688.919 33.4128C690.811 32.2406 692.49 31.6544 693.956 31.6544C695.422 31.6544 696.463 31.9358 697.078 32.4985C697.693 33.0612 698 33.7645 698 34.6086C698 35.4057 697.716 36.2029 697.149 37C696.581 37.7971 695.801 38.4067 694.807 38.8287C693.01 37.2813 691.189 36.5076 689.344 36.5076C687.547 36.5076 685.939 37.422 684.52 39.2508V55.0061C684.52 59.1325 685.016 61.1957 686.01 61.1957H689.486C689.865 61.1957 690.054 61.5474 690.054 62.2508C690.054 62.9541 689.912 63.3058 689.628 63.3058L681.895 63.2355L673.665 63.4465C673.334 63.4465 673.168 63.0948 673.168 62.3914C673.168 61.6881 673.286 61.3364 673.523 61.3364H677.638C678.205 61.3364 678.489 60.9378 678.489 60.1407V43.6116C678.489 39.0632 677.827 36.789 676.503 36.789H675.084C674.705 36.789 674.516 36.4373 674.516 35.7339C674.516 35.0306 674.658 34.6789 674.942 34.6789C676.219 34.6789 677.496 34.2803 678.773 33.4832C680.05 32.6391 681.091 31.7951 681.895 30.9511C682.746 30.107 683.266 29.685 683.456 29.685C684.118 29.685 684.449 29.9664 684.449 30.5291Z" fill="#606060"/>
</svg>
