<svg width="589" height="162" viewBox="0 0 589 162" fill="none" xmlns="http://www.w3.org/2000/svg">
<circle cx="68.5001" cy="67.5" r="42.5" fill="white"/>
<path fill-rule="evenodd" clip-rule="evenodd" d="M52.4427 16.8793C31.9613 23.6322 15.671 41.0169 11.381 63.7076C5.09545 96.9527 26.9505 128.999 60.1957 135.284C71.825 137.483 83.3077 136.238 93.5922 132.267L92.9191 132.503L88.069 118.648C80.0852 121.249 71.3528 121.936 62.5199 120.266C34.4951 114.967 16.0718 87.9532 21.3703 59.9283C24.8432 41.5598 37.645 27.316 53.9458 21.1731L52.4427 16.8793Z" fill="#F7941E"/>
<path fill-rule="evenodd" clip-rule="evenodd" d="M68.5 110C91.9721 110 111 90.9721 111 67.5C111 44.0279 91.9721 25 68.5 25C45.0279 25 26 44.0279 26 67.5C26 90.9721 45.0279 110 68.5 110ZM48.7773 83.1238C48.2071 83.9374 48.1338 84.9821 48.5574 86.2581C49.6918 89.6749 52.4201 91.9264 56.7422 93.0124C61.0643 94.0985 65.442 93.9056 69.8753 92.4337L71.2702 91.9706L72.261 94.955C72.4548 95.5389 72.7966 95.9536 73.2863 96.1992C73.7832 96.4664 74.3236 96.5031 74.9075 96.3092L77.3079 95.5123L75.6494 90.5167L77.4335 89.9244L79.0921 94.9199L81.4925 94.123C82.0764 93.9291 82.4876 93.5765 82.726 93.0652C82.9932 92.5683 83.0298 92.0279 82.836 91.444L81.8236 88.3948C88.4775 85.9456 92.8115 83.0902 94.8258 79.8284C96.8401 76.5666 97.1544 72.8489 95.7687 68.6751C94.3759 64.4797 91.3381 61.9468 86.6554 61.0765C82.8589 60.3442 78.1969 60.2593 72.6694 60.822L69.2985 50.6687C72.2465 49.93 74.5266 50.3975 76.1387 52.0712C77.7507 53.7449 79.5299 54.2586 81.4762 53.6124L85.3364 52.3308C86.0285 52.1011 86.6632 51.5902 87.2406 50.7983C87.8108 49.9847 87.8841 48.94 87.4605 47.6641C86.3405 44.2904 83.6194 42.0606 79.2973 40.9746C74.9896 39.8597 70.6336 40.0094 66.2292 41.4237L65.2383 38.4393C65.0445 37.8554 64.6919 37.4443 64.1806 37.2059C63.6909 36.9603 63.1541 36.9344 62.5702 37.1283L60.1697 37.9252L61.8175 42.8883L60.0334 43.4807L58.3856 38.5176L55.9852 39.3145C55.4229 39.5012 55.0082 39.843 54.7409 40.3398C54.4954 40.8295 54.4695 41.3663 54.6634 41.9502L55.6757 44.9995C49.0867 47.4991 44.7922 50.3655 42.7924 53.5984C40.7853 56.8098 40.4639 60.4699 41.8281 64.5788C42.9122 67.8443 45.0964 70.1563 48.3805 71.5149C51.924 73.0036 57.3999 73.3344 64.8084 72.5074L68.2331 82.8229L67.9736 82.9091C64.4198 84.0649 61.7829 83.7519 60.0629 81.97C58.3429 80.1882 56.5097 79.6203 54.5634 80.2665L50.7032 81.5481C49.9895 81.785 49.3476 82.3103 48.7773 83.1238ZM61.3513 62.0946C56.9195 62.3415 54.4164 61.5999 53.842 59.8699C53.0164 57.3829 54.5066 55.5076 58.3127 54.244L58.702 54.1147L61.3513 62.0946ZM74.3965 80.7767L72.6124 81.369L69.5215 72.0591L71.4133 71.7912L74.3965 80.7767ZM67.9562 61.3784L66.0536 61.6139L63.0812 52.6608L64.8653 52.0685L67.9562 61.3784ZM79.3272 79.1397L78.8081 79.312L76.1588 71.3321C80.6771 71.0565 83.2235 71.7837 83.7978 73.5138C84.6235 76.0007 83.1333 77.876 79.3272 79.1397Z" fill="#F7941E"/>
<path d="M195.768 27.104C199.288 27.104 202.328 27.008 204.888 26.816C204.888 28.288 204.664 29.664 204.216 30.944C203.064 31.2 202.104 31.744 201.336 32.576C200.568 33.408 199.8 34.752 199.032 36.608C198.264 38.4 197.304 41.152 196.152 44.864L181.176 92.288C180.152 92.672 178.872 92.864 177.336 92.864C170.936 74.688 164.696 57.696 158.616 41.888L141.72 92.288C140.696 92.672 139.32 92.864 137.592 92.864C131.896 74.24 126.52 57.28 121.464 41.984C120.248 38.4 119.288 35.904 118.584 34.496C117.944 33.088 117.304 32.192 116.664 31.808C116.088 31.36 115.16 31.072 113.88 30.944C113.56 29.92 113.4 28.544 113.4 26.816C116.472 27.008 120.088 27.104 124.248 27.104C128.472 27.104 132.344 27.008 135.864 26.816C135.864 28.288 135.704 29.664 135.384 30.944C133.08 31.072 131.48 31.36 130.584 31.808C129.688 32.192 129.24 32.992 129.24 34.208C129.24 35.488 129.784 37.696 130.872 40.832C135.608 55.552 139.352 67.488 142.104 76.64L159 26.816C159.832 26.496 161.24 26.336 163.224 26.336C168.984 41.376 175.096 58.208 181.56 76.832L191.736 44.576C192.76 41.12 193.272 38.56 193.272 36.896C193.272 35.04 192.76 33.664 191.736 32.768C190.776 31.808 189.24 31.2 187.128 30.944C186.68 29.792 186.456 28.416 186.456 26.816C189.144 27.008 192.248 27.104 195.768 27.104ZM258.756 87.872C259.076 88.832 259.236 90.272 259.236 92.192C256.676 92.064 253.38 92 249.348 92C245.124 92 241.732 92.064 239.172 92.192C239.172 90.208 239.364 88.768 239.748 87.872C241.22 87.68 242.244 87.424 242.82 87.104C243.46 86.72 243.78 86.176 243.78 85.472C243.78 84.896 243.46 83.904 242.82 82.496L240.9 78.368C231.684 78.368 224.42 78.528 219.108 78.848L218.052 81.344C217.412 82.816 217.092 83.968 217.092 84.8C217.092 86.592 218.404 87.616 221.028 87.872C221.412 89.024 221.604 90.464 221.604 92.192C219.172 92.064 216.516 92 213.636 92C211.14 92 208.868 92.064 206.82 92.192C206.82 90.656 207.012 89.216 207.396 87.872C208.804 87.616 209.892 87.04 210.66 86.144C211.428 85.184 212.452 83.296 213.732 80.48L230.244 43.904C231.46 43.648 232.74 43.52 234.084 43.52L251.748 80.192C253.156 83.136 254.34 85.12 255.3 86.144C256.324 87.168 257.476 87.744 258.756 87.872ZM238.98 74.432L233.22 62.336C231.556 58.944 230.404 56.256 229.764 54.272C229.252 55.872 228.612 57.472 227.844 59.072C227.14 60.608 226.692 61.568 226.5 61.952L221.028 74.432H238.98ZM294.059 87.68C297.067 87.68 299.435 87.392 301.163 86.816C302.955 86.176 304.363 85.216 305.387 83.936C306.475 82.592 307.499 80.736 308.459 78.368C310.187 78.688 311.595 79.392 312.683 80.48C311.531 83.488 310.667 87.36 310.091 92.096L293.099 92C283.883 92 276.459 92.064 270.827 92.192C270.827 90.208 270.987 88.768 271.307 87.872C272.843 87.744 274.027 87.488 274.859 87.104C275.691 86.72 276.267 86.016 276.587 84.992C276.971 83.968 277.163 82.432 277.163 80.384V55.136C277.163 53.28 276.971 51.872 276.587 50.912C276.267 49.952 275.691 49.28 274.859 48.896C274.091 48.512 272.907 48.256 271.307 48.128C271.051 47.104 270.923 45.664 270.923 43.808C275.531 43.936 279.083 44 281.579 44C284.203 44 287.755 43.936 292.235 43.808C292.235 45.728 292.075 47.168 291.755 48.128C289.515 48.256 287.979 48.8 287.147 49.76C286.379 50.656 285.995 52.48 285.995 55.232V80.192C285.995 82.24 286.187 83.808 286.571 84.896C286.955 85.92 287.659 86.656 288.683 87.104C289.771 87.488 291.371 87.68 293.483 87.68H294.059ZM347.028 87.68C350.036 87.68 352.404 87.392 354.132 86.816C355.924 86.176 357.332 85.216 358.356 83.936C359.444 82.592 360.468 80.736 361.428 78.368C363.156 78.688 364.564 79.392 365.652 80.48C364.5 83.488 363.636 87.36 363.06 92.096L346.068 92C336.852 92 329.428 92.064 323.796 92.192C323.796 90.208 323.956 88.768 324.276 87.872C325.812 87.744 326.996 87.488 327.828 87.104C328.66 86.72 329.236 86.016 329.556 84.992C329.94 83.968 330.132 82.432 330.132 80.384V55.136C330.132 53.28 329.94 51.872 329.556 50.912C329.236 49.952 328.66 49.28 327.828 48.896C327.06 48.512 325.876 48.256 324.276 48.128C324.02 47.104 323.892 45.664 323.892 43.808C328.5 43.936 332.052 44 334.548 44C337.172 44 340.724 43.936 345.204 43.808C345.204 45.728 345.044 47.168 344.724 48.128C342.484 48.256 340.948 48.8 340.116 49.76C339.348 50.656 338.964 52.48 338.964 55.232V80.192C338.964 82.24 339.156 83.808 339.54 84.896C339.924 85.92 340.628 86.656 341.652 87.104C342.74 87.488 344.34 87.68 346.452 87.68H347.028ZM415.933 78.368C417.661 78.688 419.069 79.392 420.157 80.48C419.005 83.488 418.141 87.36 417.565 92.096L399.037 92C389.821 92 382.397 92.064 376.765 92.192C376.765 90.208 376.925 88.768 377.245 87.872C378.845 87.744 380.029 87.488 380.797 87.104C381.629 86.72 382.205 86.016 382.525 84.992C382.845 83.968 383.005 82.432 383.005 80.384V55.136C383.005 53.28 382.813 51.872 382.429 50.912C382.109 49.952 381.533 49.28 380.701 48.896C379.933 48.512 378.781 48.256 377.245 48.128C376.925 47.168 376.765 45.728 376.765 43.808C381.373 43.936 386.397 44 391.837 44C403.613 44 411.485 43.936 415.453 43.808C416.157 49.824 416.765 53.792 417.277 55.712C416.189 56.416 414.749 56.768 412.957 56.768C412.701 54.08 411.581 51.968 409.597 50.432C407.677 48.896 404.253 48.128 399.325 48.128H391.837V65.792H396.637C400.029 65.792 402.365 65.408 403.645 64.64C404.989 63.872 405.693 62.464 405.757 60.416C407.165 59.968 408.637 59.744 410.173 59.744C410.045 61.344 409.981 64.032 409.981 67.808C409.981 71.904 410.045 74.688 410.173 76.16C408.445 76.16 407.037 75.968 405.949 75.584C405.757 73.472 404.989 72.032 403.645 71.264C402.365 70.496 400.029 70.112 396.637 70.112H391.837V80.192C391.837 82.24 392.029 83.808 392.413 84.896C392.861 85.92 393.597 86.656 394.621 87.104C395.709 87.488 397.309 87.68 399.421 87.68H399.997C403.709 87.68 406.557 87.36 408.541 86.72C410.589 86.08 412.093 85.152 413.053 83.936C414.077 82.656 415.037 80.8 415.933 78.368ZM475.92 43.808C475.728 47.264 475.952 51.424 476.592 56.288C475.248 56.864 473.68 57.152 471.888 57.152C471.76 54.08 470.928 51.808 469.392 50.336C467.92 48.864 465.584 48.128 462.384 48.128H458.16V81.056C458.16 83.04 458.32 84.512 458.64 85.472C459.024 86.368 459.664 87.008 460.56 87.392C461.52 87.776 462.96 88.032 464.88 88.16C465.2 88.928 465.36 90.272 465.36 92.192C460.624 92.064 456.752 92 453.744 92C450.032 92 446.064 92.064 441.84 92.192C441.84 90.272 442 88.928 442.32 88.16C444.24 88.032 445.68 87.776 446.64 87.392C447.664 87.008 448.368 86.336 448.752 85.376C449.136 84.416 449.328 82.976 449.328 81.056V48.128H445.392C442.832 48.128 440.848 48.48 439.44 49.184C438.096 49.824 437.104 50.752 436.464 51.968C435.824 53.184 435.28 54.912 434.832 57.152C432.784 57.152 431.28 56.864 430.32 56.288C431.28 51.936 431.76 47.776 431.76 43.808C435.088 43.936 442.416 44 453.744 44C465.264 44 472.656 43.936 475.92 43.808ZM514.247 92.864C508.743 92.864 503.879 91.84 499.655 89.792C495.431 87.744 492.135 84.864 489.767 81.152C487.463 77.44 486.311 73.12 486.311 68.192C486.311 63.328 487.463 59.008 489.767 55.232C492.135 51.456 495.431 48.544 499.655 46.496C503.943 44.384 508.871 43.328 514.439 43.328C519.943 43.328 524.807 44.352 529.031 46.4C533.255 48.448 536.519 51.36 538.823 55.136C541.191 58.848 542.375 63.136 542.375 68C542.375 72.928 541.191 77.28 538.823 81.056C536.519 84.768 533.223 87.68 528.935 89.792C524.711 91.84 519.815 92.864 514.247 92.864ZM515.591 88.448C520.775 88.448 524.871 86.72 527.879 83.264C530.951 79.808 532.487 75.2 532.487 69.44C532.487 65.28 531.655 61.568 529.991 58.304C528.327 54.976 525.991 52.384 522.983 50.528C520.039 48.672 516.711 47.744 512.999 47.744C507.815 47.744 503.719 49.504 500.711 53.024C497.703 56.48 496.199 61.056 496.199 66.752C496.199 71.04 497.031 74.848 498.695 78.176C500.359 81.44 502.663 83.968 505.607 85.76C508.551 87.552 511.879 88.448 515.591 88.448Z" fill="white"/>
<path d="M137.768 132.792C138.696 133.08 139.4 133.464 139.88 133.944C139.272 135.832 138.776 138.216 138.392 141.096C135.896 141.032 132.472 141 128.12 141C122.232 141 118.088 141.048 115.688 141.144C115.688 140.216 115.768 139.528 115.928 139.08C116.824 139.016 117.496 138.856 117.944 138.6C118.424 138.344 118.76 137.896 118.952 137.256C119.144 136.616 119.24 135.656 119.24 134.376V114.648C119.24 113.048 119 111.976 118.52 111.432C118.072 110.856 117.208 110.536 115.928 110.472C115.768 110.024 115.688 109.336 115.688 108.408C117.576 108.504 120.264 108.552 123.752 108.552C129.576 108.552 134.072 108.504 137.24 108.408C137.56 111.928 137.896 114.456 138.248 115.992C137.768 116.376 137.048 116.568 136.088 116.568C135.928 114.776 135.272 113.32 134.12 112.2C133 111.048 131.032 110.472 128.216 110.472H123.752V123.624H126.776C128.792 123.624 130.168 123.368 130.904 122.856C131.672 122.312 132.072 121.272 132.104 119.736C132.872 119.512 133.64 119.4 134.408 119.4C134.344 120.488 134.312 122.232 134.312 124.632C134.312 127.256 134.344 129.112 134.408 130.2C133.544 130.2 132.808 130.12 132.2 129.96C132.072 128.296 131.624 127.176 130.856 126.6C130.12 125.992 128.76 125.688 126.776 125.688H123.752V134.376C123.752 135.592 123.864 136.52 124.088 137.16C124.312 137.768 124.728 138.2 125.336 138.456C125.976 138.712 126.904 138.84 128.12 138.84H128.408C130.616 138.84 132.312 138.616 133.496 138.168C134.68 137.72 135.544 137.096 136.088 136.296C136.664 135.496 137.224 134.328 137.768 132.792ZM169.668 139.08C169.86 139.688 169.956 140.376 169.956 141.144C168.708 141.048 166.98 141 164.772 141C163.62 141 161.748 141.048 159.156 141.144C159.156 140.408 159.22 139.72 159.348 139.08C160.02 139.016 160.516 138.904 160.836 138.744C161.156 138.584 161.316 138.312 161.316 137.928C161.316 137.256 160.772 136.168 159.684 134.664C158.596 133.192 157.604 131.928 156.708 130.872L153.204 134.856C152.564 135.592 152.1 136.184 151.812 136.632C151.524 137.08 151.38 137.464 151.38 137.784C151.38 138.104 151.556 138.376 151.908 138.6C152.292 138.792 152.884 138.952 153.684 139.08C153.844 139.624 153.924 140.312 153.924 141.144C152.484 141.048 150.9 141 149.172 141C147.348 141 145.86 141.048 144.708 141.144C144.708 140.152 144.804 139.464 144.996 139.08C146.34 138.664 148.084 137.288 150.228 134.952L155.46 129.336L151.476 124.584L150.276 123.144L148.98 121.608C148.052 120.488 147.412 119.8 147.06 119.544C146.74 119.256 146.26 119.048 145.62 118.92C145.46 118.344 145.38 117.656 145.38 116.856C146.82 116.952 148.66 117 150.9 117C153.076 117 154.804 116.952 156.084 116.856C156.084 117.624 156.02 118.312 155.892 118.92C155.22 118.984 154.724 119.112 154.404 119.304C154.084 119.464 153.924 119.72 153.924 120.072C153.924 120.616 154.388 121.464 155.316 122.616L158.676 126.6L161.556 123.096C162.548 121.88 163.044 120.936 163.044 120.264C163.044 119.464 162.356 119.016 160.98 118.92C160.852 118.376 160.788 117.688 160.788 116.856C162.196 116.952 163.652 117 165.156 117C166.948 117 168.372 116.952 169.428 116.856C169.428 117.784 169.364 118.472 169.236 118.92C168.372 119.208 167.636 119.592 167.028 120.072C166.452 120.52 165.54 121.512 164.292 123.048L159.972 128.184C161.988 130.584 163.556 132.52 164.676 133.992L166.02 135.768C166.916 136.984 167.588 137.816 168.036 138.264C168.484 138.712 169.028 138.984 169.668 139.08ZM187.307 130.44C189.003 130.44 190.379 130.024 191.435 129.192C192.523 128.36 193.067 126.984 193.067 125.064C193.067 123.24 192.491 121.8 191.339 120.744C190.219 119.656 188.491 119.112 186.155 119.112C185.547 119.112 184.843 119.208 184.043 119.4V134.856C184.043 136.36 184.331 137.4 184.907 137.976C185.483 138.552 186.475 138.872 187.883 138.936C188.043 139.416 188.123 140.136 188.123 141.096C186.331 141.032 184.475 141 182.555 141C180.123 141 178.107 141.032 176.507 141.096C176.507 140.104 176.587 139.384 176.747 138.936C177.867 138.872 178.619 138.616 179.003 138.168C179.419 137.688 179.627 136.76 179.627 135.384V122.568C179.627 121.64 179.547 120.936 179.387 120.456C179.227 119.976 178.939 119.64 178.523 119.448C178.139 119.256 177.547 119.128 176.747 119.064C176.587 118.584 176.507 117.864 176.507 116.904C179.515 116.968 181.483 117 182.411 117L188.171 116.904C191.467 116.904 193.883 117.592 195.419 118.968C196.955 120.344 197.723 122.104 197.723 124.248C197.723 125.784 197.355 127.192 196.619 128.472C195.883 129.752 194.779 130.776 193.307 131.544C191.867 132.312 190.123 132.696 188.075 132.696C186.827 132.696 185.851 132.584 185.147 132.36C185.083 131.912 185.051 131.576 185.051 131.352C185.051 130.936 185.099 130.584 185.195 130.296C185.675 130.392 186.379 130.44 187.307 130.44ZM223.607 134.184C224.471 134.344 225.175 134.696 225.719 135.24C225.143 136.744 224.711 138.68 224.423 141.048L215.159 141C210.551 141 206.839 141.032 204.023 141.096C204.023 140.104 204.103 139.384 204.263 138.936C205.063 138.872 205.655 138.744 206.039 138.552C206.455 138.36 206.743 138.008 206.903 137.496C207.063 136.984 207.143 136.216 207.143 135.192V122.568C207.143 121.64 207.047 120.936 206.855 120.456C206.695 119.976 206.407 119.64 205.991 119.448C205.607 119.256 205.031 119.128 204.263 119.064C204.103 118.584 204.023 117.864 204.023 116.904C206.327 116.968 208.839 117 211.559 117C217.447 117 221.383 116.968 223.367 116.904C223.719 119.912 224.023 121.896 224.279 122.856C223.735 123.208 223.015 123.384 222.119 123.384C221.991 122.04 221.431 120.984 220.439 120.216C219.479 119.448 217.767 119.064 215.303 119.064H211.559V127.896H213.959C215.655 127.896 216.823 127.704 217.463 127.32C218.135 126.936 218.487 126.232 218.519 125.208C219.223 124.984 219.959 124.872 220.727 124.872C220.663 125.672 220.631 127.016 220.631 128.904C220.631 130.952 220.663 132.344 220.727 133.08C219.863 133.08 219.159 132.984 218.615 132.792C218.519 131.736 218.135 131.016 217.463 130.632C216.823 130.248 215.655 130.056 213.959 130.056H211.559V135.096C211.559 136.12 211.655 136.904 211.847 137.448C212.071 137.96 212.439 138.328 212.951 138.552C213.495 138.744 214.295 138.84 215.351 138.84H215.639C217.495 138.84 218.919 138.68 219.911 138.36C220.935 138.04 221.687 137.576 222.167 136.968C222.679 136.328 223.159 135.4 223.607 134.184ZM255.569 117C256.785 117 258.129 116.968 259.601 116.904C259.601 117.864 259.537 118.584 259.409 119.064C258.737 119.128 258.225 119.304 257.873 119.592C257.521 119.88 257.265 120.376 257.105 121.08C256.977 121.752 256.913 122.76 256.913 124.104V141.048C256.497 141.24 255.841 141.336 254.945 141.336L237.713 122.28V133.8C237.713 135.176 237.793 136.216 237.953 136.92C238.145 137.624 238.449 138.12 238.865 138.408C239.281 138.696 239.889 138.872 240.689 138.936C240.849 139.448 240.929 140.168 240.929 141.096C239.201 141.032 237.777 141 236.657 141C235.153 141 233.697 141.032 232.289 141.096C232.289 140.168 232.369 139.448 232.529 138.936C233.329 138.872 233.921 138.696 234.305 138.408C234.721 138.12 235.009 137.624 235.169 136.92C235.361 136.216 235.457 135.176 235.457 133.8V119.784L235.409 119.736C235.185 119.512 234.897 119.368 234.545 119.304C234.193 119.208 233.521 119.128 232.529 119.064C232.369 118.488 232.289 117.768 232.289 116.904C233.441 116.968 234.561 117 235.649 117C236.641 117 237.649 116.968 238.673 116.904L254.657 134.808V124.104C254.657 122.76 254.561 121.752 254.369 121.08C254.209 120.376 253.921 119.88 253.505 119.592C253.089 119.304 252.465 119.128 251.633 119.064C251.505 118.328 251.441 117.608 251.441 116.904C253.041 116.968 254.417 117 255.569 117ZM276.866 141.336C275.106 141.336 273.506 141.16 272.066 140.808C270.658 140.456 269.122 139.928 267.458 139.224C267.81 137.08 267.938 135.224 267.842 133.656C268.546 133.432 269.41 133.32 270.434 133.32C270.498 135.304 271.122 136.744 272.306 137.64C273.522 138.536 275.218 138.984 277.394 138.984C279.25 138.984 280.706 138.696 281.762 138.12C282.85 137.544 283.394 136.776 283.394 135.816C283.394 135.144 283.122 134.568 282.578 134.088C282.066 133.576 281.426 133.16 280.658 132.84C279.922 132.488 278.834 132.056 277.394 131.544C275.41 130.872 273.81 130.248 272.594 129.672C271.41 129.064 270.37 128.248 269.474 127.224C268.61 126.168 268.178 124.856 268.178 123.288C268.178 121.144 268.978 119.512 270.578 118.392C272.21 117.272 274.434 116.712 277.25 116.712C278.754 116.712 280.242 116.856 281.714 117.144C283.218 117.432 284.386 117.8 285.218 118.248C285.186 118.6 285.17 119.144 285.17 119.88C285.17 121.32 285.266 122.456 285.458 123.288C284.786 123.64 283.906 123.816 282.818 123.816C282.37 121.992 281.634 120.728 280.61 120.024C279.618 119.288 278.386 118.92 276.914 118.92C275.506 118.92 274.354 119.16 273.458 119.64C272.594 120.12 272.162 120.824 272.162 121.752C272.162 122.808 272.674 123.656 273.698 124.296C274.722 124.936 276.322 125.64 278.498 126.408C280.354 127.048 281.874 127.656 283.058 128.232C284.242 128.808 285.25 129.592 286.082 130.584C286.914 131.544 287.33 132.76 287.33 134.232C287.33 136.344 286.466 138.056 284.738 139.368C283.01 140.68 280.386 141.336 276.866 141.336ZM314.076 134.184C314.94 134.344 315.644 134.696 316.188 135.24C315.612 136.744 315.18 138.68 314.892 141.048L305.628 141C301.02 141 297.308 141.032 294.492 141.096C294.492 140.104 294.572 139.384 294.732 138.936C295.532 138.872 296.124 138.744 296.508 138.552C296.924 138.36 297.212 138.008 297.372 137.496C297.532 136.984 297.612 136.216 297.612 135.192V122.568C297.612 121.64 297.516 120.936 297.324 120.456C297.164 119.976 296.876 119.64 296.46 119.448C296.076 119.256 295.5 119.128 294.732 119.064C294.572 118.584 294.492 117.864 294.492 116.904C296.796 116.968 299.308 117 302.028 117C307.916 117 311.852 116.968 313.836 116.904C314.188 119.912 314.492 121.896 314.748 122.856C314.204 123.208 313.484 123.384 312.588 123.384C312.46 122.04 311.9 120.984 310.908 120.216C309.948 119.448 308.236 119.064 305.772 119.064H302.028V127.896H304.428C306.124 127.896 307.292 127.704 307.932 127.32C308.604 126.936 308.956 126.232 308.988 125.208C309.692 124.984 310.428 124.872 311.196 124.872C311.132 125.672 311.1 127.016 311.1 128.904C311.1 130.952 311.132 132.344 311.196 133.08C310.332 133.08 309.628 132.984 309.084 132.792C308.988 131.736 308.604 131.016 307.932 130.632C307.292 130.248 306.124 130.056 304.428 130.056H302.028V135.096C302.028 136.12 302.124 136.904 302.316 137.448C302.54 137.96 302.908 138.328 303.42 138.552C303.964 138.744 304.764 138.84 305.82 138.84H306.108C307.964 138.84 309.388 138.68 310.38 138.36C311.404 138.04 312.156 137.576 312.636 136.968C313.148 136.328 313.628 135.4 314.076 134.184ZM332.741 141.336C330.981 141.336 329.381 141.16 327.941 140.808C326.533 140.456 324.997 139.928 323.333 139.224C323.685 137.08 323.813 135.224 323.717 133.656C324.421 133.432 325.285 133.32 326.309 133.32C326.373 135.304 326.997 136.744 328.181 137.64C329.397 138.536 331.093 138.984 333.269 138.984C335.125 138.984 336.581 138.696 337.637 138.12C338.725 137.544 339.269 136.776 339.269 135.816C339.269 135.144 338.997 134.568 338.453 134.088C337.941 133.576 337.301 133.16 336.533 132.84C335.797 132.488 334.709 132.056 333.269 131.544C331.285 130.872 329.685 130.248 328.469 129.672C327.285 129.064 326.245 128.248 325.349 127.224C324.485 126.168 324.053 124.856 324.053 123.288C324.053 121.144 324.853 119.512 326.453 118.392C328.085 117.272 330.309 116.712 333.125 116.712C334.629 116.712 336.117 116.856 337.589 117.144C339.093 117.432 340.261 117.8 341.093 118.248C341.061 118.6 341.045 119.144 341.045 119.88C341.045 121.32 341.141 122.456 341.333 123.288C340.661 123.64 339.781 123.816 338.693 123.816C338.245 121.992 337.509 120.728 336.485 120.024C335.493 119.288 334.261 118.92 332.789 118.92C331.381 118.92 330.229 119.16 329.333 119.64C328.469 120.12 328.037 120.824 328.037 121.752C328.037 122.808 328.549 123.656 329.573 124.296C330.597 124.936 332.197 125.64 334.373 126.408C336.229 127.048 337.749 127.656 338.933 128.232C340.117 128.808 341.125 129.592 341.957 130.584C342.789 131.544 343.205 132.76 343.205 134.232C343.205 136.344 342.341 138.056 340.613 139.368C338.885 140.68 336.261 141.336 332.741 141.336ZM399.096 139.032C399.256 139.576 399.336 140.28 399.336 141.144C397.864 141.048 395.944 141 393.576 141C391.304 141 389.352 141.048 387.72 141.144C387.72 140.376 387.816 139.688 388.008 139.08C389.224 138.952 390.04 138.68 390.456 138.264C390.872 137.848 391.08 137.08 391.08 135.96C391.08 135.32 391.032 134.52 390.936 133.56L389.208 117.096L379.272 141.096C378.728 141.32 378.072 141.432 377.304 141.432L366.12 117.144L364.584 132.552C364.488 133.512 364.44 134.344 364.44 135.048C364.44 136.52 364.68 137.544 365.16 138.12C365.672 138.664 366.52 138.984 367.704 139.08C367.864 139.624 367.944 140.312 367.944 141.144C366.408 141.048 364.696 141 362.808 141C360.92 141 359.32 141.048 358.008 141.144C358.008 140.312 358.088 139.624 358.248 139.08C359.144 138.984 359.832 138.76 360.312 138.408C360.792 138.056 361.16 137.416 361.416 136.488C361.704 135.528 361.944 134.072 362.136 132.12L363.672 115.032C363.704 114.744 363.72 114.36 363.72 113.88C363.72 112.632 363.464 111.752 362.952 111.24C362.44 110.728 361.608 110.472 360.456 110.472C360.296 109.96 360.216 109.272 360.216 108.408C361.176 108.504 362.392 108.552 363.864 108.552C365.048 108.552 366.264 108.504 367.512 108.408L379.512 134.952L389.976 108.408C391.064 108.504 392.312 108.552 393.72 108.552C394.872 108.552 396.088 108.504 397.368 108.408C397.368 109.176 397.288 109.864 397.128 110.472C396.04 110.472 395.208 110.744 394.632 111.288C394.088 111.832 393.816 112.776 393.816 114.12C393.816 114.632 393.832 115.032 393.864 115.32L395.592 132.936C395.752 134.536 395.96 135.768 396.216 136.632C396.472 137.464 396.824 138.056 397.272 138.408C397.72 138.76 398.328 138.968 399.096 139.032ZM429.128 138.936C429.288 139.416 429.368 140.136 429.368 141.096C428.088 141.032 426.44 141 424.424 141C422.312 141 420.616 141.032 419.336 141.096C419.336 140.104 419.432 139.384 419.624 138.936C420.36 138.84 420.872 138.712 421.16 138.552C421.48 138.36 421.64 138.088 421.64 137.736C421.64 137.448 421.48 136.952 421.16 136.248L420.2 134.184C415.592 134.184 411.96 134.264 409.304 134.424L408.776 135.672C408.456 136.408 408.296 136.984 408.296 137.4C408.296 138.296 408.952 138.808 410.264 138.936C410.456 139.512 410.552 140.232 410.552 141.096C409.336 141.032 408.008 141 406.568 141C405.32 141 404.184 141.032 403.16 141.096C403.16 140.328 403.256 139.608 403.448 138.936C404.152 138.808 404.696 138.52 405.08 138.072C405.464 137.592 405.976 136.648 406.616 135.24L414.872 116.952C415.48 116.824 416.12 116.76 416.792 116.76L425.624 135.096C426.328 136.568 426.92 137.56 427.4 138.072C427.912 138.584 428.488 138.872 429.128 138.936ZM419.24 132.216L416.36 126.168C415.528 124.472 414.952 123.128 414.632 122.136C414.376 122.936 414.056 123.736 413.672 124.536C413.32 125.304 413.096 125.784 413 125.976L410.264 132.216H419.24ZM458.444 117C459.66 117 461.004 116.968 462.476 116.904C462.476 117.864 462.412 118.584 462.284 119.064C461.612 119.128 461.1 119.304 460.748 119.592C460.396 119.88 460.14 120.376 459.98 121.08C459.852 121.752 459.788 122.76 459.788 124.104V141.048C459.372 141.24 458.716 141.336 457.82 141.336L440.588 122.28V133.8C440.588 135.176 440.668 136.216 440.828 136.92C441.02 137.624 441.324 138.12 441.74 138.408C442.156 138.696 442.764 138.872 443.564 138.936C443.724 139.448 443.804 140.168 443.804 141.096C442.076 141.032 440.652 141 439.532 141C438.028 141 436.572 141.032 435.164 141.096C435.164 140.168 435.244 139.448 435.404 138.936C436.204 138.872 436.796 138.696 437.18 138.408C437.596 138.12 437.884 137.624 438.044 136.92C438.236 136.216 438.332 135.176 438.332 133.8V119.784L438.284 119.736C438.06 119.512 437.772 119.368 437.42 119.304C437.068 119.208 436.396 119.128 435.404 119.064C435.244 118.488 435.164 117.768 435.164 116.904C436.316 116.968 437.436 117 438.524 117C439.516 117 440.524 116.968 441.548 116.904L457.532 134.808V124.104C457.532 122.76 457.436 121.752 457.244 121.08C457.084 120.376 456.796 119.88 456.38 119.592C455.964 119.304 455.34 119.128 454.508 119.064C454.38 118.328 454.316 117.608 454.316 116.904C455.916 116.968 457.292 117 458.444 117ZM494.237 138.936C494.397 139.416 494.477 140.136 494.477 141.096C493.197 141.032 491.549 141 489.533 141C487.421 141 485.725 141.032 484.445 141.096C484.445 140.104 484.541 139.384 484.733 138.936C485.469 138.84 485.981 138.712 486.269 138.552C486.589 138.36 486.749 138.088 486.749 137.736C486.749 137.448 486.589 136.952 486.269 136.248L485.309 134.184C480.701 134.184 477.069 134.264 474.413 134.424L473.885 135.672C473.565 136.408 473.405 136.984 473.405 137.4C473.405 138.296 474.061 138.808 475.373 138.936C475.565 139.512 475.661 140.232 475.661 141.096C474.445 141.032 473.117 141 471.677 141C470.429 141 469.293 141.032 468.269 141.096C468.269 140.328 468.365 139.608 468.557 138.936C469.261 138.808 469.805 138.52 470.189 138.072C470.573 137.592 471.085 136.648 471.725 135.24L479.981 116.952C480.589 116.824 481.229 116.76 481.901 116.76L490.733 135.096C491.437 136.568 492.029 137.56 492.509 138.072C493.021 138.584 493.597 138.872 494.237 138.936ZM484.349 132.216L481.469 126.168C480.637 124.472 480.061 123.128 479.741 122.136C479.485 122.936 479.165 123.736 478.781 124.536C478.429 125.304 478.205 125.784 478.109 125.976L475.373 132.216H484.349ZM512.296 141.336C509.544 141.336 507.112 140.808 505 139.752C502.888 138.696 501.24 137.224 500.056 135.336C498.904 133.416 498.328 131.224 498.328 128.76C498.328 126.2 499.016 124.024 500.392 122.232C501.768 120.408 503.576 119.032 505.816 118.104C508.056 117.176 510.456 116.712 513.016 116.712C514.968 116.712 516.824 116.872 518.584 117.192C520.376 117.48 521.88 117.896 523.096 118.44C522.808 119.656 522.664 121.496 522.664 123.96C522.088 124.216 521.272 124.344 520.216 124.344C520.12 122.328 519.464 120.904 518.248 120.072C517.032 119.24 515.384 118.824 513.304 118.824C511.096 118.824 509.224 119.24 507.688 120.072C506.184 120.904 505.064 122.024 504.328 123.432C503.592 124.808 503.224 126.312 503.224 127.944C503.224 131.208 504.072 133.864 505.768 135.912C507.496 137.96 509.944 138.984 513.112 138.984C514.104 138.984 514.872 138.968 515.416 138.936C515.96 138.904 516.52 138.808 517.096 138.648C517.608 138.52 517.976 138.28 518.2 137.928C518.424 137.544 518.536 136.92 518.536 136.056V134.568C518.536 133.64 518.456 132.984 518.296 132.6C518.136 132.184 517.816 131.912 517.336 131.784C516.856 131.624 516.072 131.528 514.984 131.496C514.792 130.92 514.696 130.184 514.696 129.288C515.432 129.352 517.176 129.384 519.927 129.384C522.648 129.384 524.328 129.352 524.968 129.288C524.968 130.184 524.888 130.92 524.728 131.496C524.12 131.528 523.688 131.624 523.432 131.784C523.176 131.912 523 132.168 522.904 132.552C522.808 132.904 522.76 133.48 522.76 134.28V135.48C522.76 136.216 522.792 136.808 522.856 137.256C522.952 137.672 523.112 138.12 523.336 138.6C522.056 139.432 520.456 140.104 518.536 140.616C516.648 141.096 514.568 141.336 512.296 141.336ZM552.295 134.184C553.159 134.344 553.863 134.696 554.406 135.24C553.831 136.744 553.399 138.68 553.111 141.048L543.847 141C539.239 141 535.527 141.032 532.711 141.096C532.711 140.104 532.791 139.384 532.951 138.936C533.751 138.872 534.343 138.744 534.727 138.552C535.143 138.36 535.431 138.008 535.591 137.496C535.751 136.984 535.831 136.216 535.831 135.192V122.568C535.831 121.64 535.735 120.936 535.543 120.456C535.383 119.976 535.095 119.64 534.679 119.448C534.295 119.256 533.719 119.128 532.951 119.064C532.791 118.584 532.711 117.864 532.711 116.904C535.015 116.968 537.527 117 540.247 117C546.135 117 550.071 116.968 552.055 116.904C552.407 119.912 552.711 121.896 552.967 122.856C552.423 123.208 551.703 123.384 550.807 123.384C550.679 122.04 550.119 120.984 549.127 120.216C548.167 119.448 546.455 119.064 543.991 119.064H540.247V127.896H542.647C544.343 127.896 545.511 127.704 546.151 127.32C546.823 126.936 547.175 126.232 547.207 125.208C547.911 124.984 548.647 124.872 549.415 124.872C549.351 125.672 549.319 127.016 549.319 128.904C549.319 130.952 549.351 132.344 549.415 133.08C548.551 133.08 547.847 132.984 547.303 132.792C547.207 131.736 546.823 131.016 546.151 130.632C545.511 130.248 544.343 130.056 542.647 130.056H540.247V135.096C540.247 136.12 540.343 136.904 540.535 137.448C540.759 137.96 541.127 138.328 541.639 138.552C542.183 138.744 542.983 138.84 544.039 138.84H544.327C546.183 138.84 547.607 138.68 548.599 138.36C549.623 138.04 550.375 137.576 550.855 136.968C551.367 136.328 551.847 135.4 552.295 134.184ZM580.656 135.384C581.52 136.664 582.4 137.576 583.296 138.12C584.224 138.632 585.36 138.92 586.704 138.984C586.704 139.912 586.64 140.584 586.512 141C583.792 141 581.488 141.112 579.6 141.336C579.376 140.952 578.944 140.28 578.304 139.32L576.144 135.816C574.96 133.832 573.392 132.216 571.44 130.968L569.904 131.016L568.512 130.968V135.336C568.512 136.392 568.592 137.176 568.752 137.688C568.912 138.2 569.168 138.552 569.52 138.744C569.904 138.936 570.48 139.048 571.248 139.08C571.376 139.464 571.44 140.136 571.44 141.096C570.256 141.032 568.512 141 566.208 141C564.512 141 562.768 141.032 560.976 141.096C560.976 140.2 561.056 139.528 561.216 139.08C562.016 139.016 562.608 138.888 562.992 138.696C563.408 138.504 563.696 138.168 563.856 137.688C564.016 137.208 564.096 136.488 564.096 135.528V122.52C564.096 121.144 563.904 120.232 563.52 119.784C563.136 119.336 562.368 119.08 561.216 119.016C561.056 118.536 560.976 117.832 560.976 116.904C562.192 116.968 563.952 117 566.256 117L569.712 116.952C571.376 116.888 572.64 116.856 573.504 116.856C576.576 116.856 578.896 117.448 580.464 118.632C582.032 119.816 582.816 121.336 582.816 123.192C582.816 125.048 582.224 126.584 581.04 127.8C579.856 128.984 578.208 129.784 576.096 130.2C576.896 130.68 577.552 131.24 578.064 131.88C578.608 132.488 579.472 133.656 580.656 135.384ZM570.336 128.616C572.64 128.616 574.528 128.216 576 127.416C577.472 126.584 578.208 125.384 578.208 123.816C578.208 120.552 575.968 118.92 571.488 118.92C570.464 118.92 569.472 119.016 568.512 119.208V128.472C569.184 128.568 569.792 128.616 570.336 128.616Z" fill="white"/>
</svg>
