<svg width="114" height="131" viewBox="0 0 114 131" fill="none" xmlns="http://www.w3.org/2000/svg">
<circle cx="68.5001" cy="56.5" r="42.5" fill="white"/>
<path fill-rule="evenodd" clip-rule="evenodd" d="M52.4427 5.8793C31.9613 12.6322 15.671 30.0169 11.381 52.7076C5.09545 85.9527 26.9505 117.999 60.1957 124.284C71.825 126.483 83.3077 125.238 93.5922 121.267L92.9191 121.503L88.069 107.648C80.0852 110.249 71.3528 110.936 62.5199 109.266C34.4951 103.967 16.0718 76.9532 21.3703 48.9283C24.8432 30.5598 37.645 16.316 53.9458 10.1731L52.4427 5.8793Z" fill="#F7941E"/>
<path fill-rule="evenodd" clip-rule="evenodd" d="M68.5001 99C91.9722 99 111 79.9721 111 56.5C111 33.0279 91.9722 14 68.5001 14C45.028 14 26.0001 33.0279 26.0001 56.5C26.0001 79.9721 45.028 99 68.5001 99ZM48.7774 72.1238C48.2071 72.9374 48.1338 73.9821 48.5574 75.2581C49.6918 78.6749 52.4201 80.9264 56.7422 82.0124C61.0644 83.0985 65.4421 82.9056 69.8753 81.4337L71.2702 80.9706L72.261 83.955C72.4549 84.5389 72.7966 84.9536 73.2863 85.1992C73.7832 85.4664 74.3236 85.5031 74.9075 85.3092L77.3079 84.5123L75.6494 79.5167L77.4335 78.9244L79.0921 83.9199L81.4925 83.123C82.0764 82.9291 82.4876 82.5765 82.726 82.0652C82.9932 81.5683 83.0299 81.0279 82.836 80.444L81.8237 77.3948C88.4775 74.9456 92.8115 72.0902 94.8258 68.8284C96.8401 65.5666 97.1544 61.8489 95.7688 57.6751C94.3759 53.4797 91.3381 50.9468 86.6554 50.0765C82.8589 49.3442 78.1969 49.2593 72.6694 49.822L69.2985 39.6687C72.2466 38.93 74.5266 39.3975 76.1387 41.0712C77.7508 42.7449 79.5299 43.2586 81.4763 42.6124L85.3365 41.3308C86.0285 41.1011 86.6632 40.5902 87.2406 39.7983C87.8108 38.9847 87.8841 37.94 87.4605 36.6641C86.3405 33.2904 83.6194 31.0606 79.2973 29.9746C74.9896 28.8597 70.6336 29.0094 66.2292 30.4237L65.2384 27.4393C65.0445 26.8554 64.6919 26.4443 64.1806 26.2059C63.6909 25.9603 63.1541 25.9344 62.5702 26.1283L60.1698 26.9252L61.8175 31.8883L60.0334 32.4807L58.3856 27.5176L55.9852 28.3145C55.4229 28.5012 55.0082 28.843 54.741 29.3398C54.4954 29.8295 54.4695 30.3663 54.6634 30.9502L55.6757 33.9995C49.0867 36.4991 44.7923 39.3655 42.7924 42.5984C40.7854 45.8098 40.4639 49.4699 41.8281 53.5788C42.9122 56.8443 45.0964 59.1563 48.3806 60.5149C51.924 62.0036 57.3999 62.3344 64.8084 61.5074L68.2332 71.8229L67.9736 71.9091C64.4198 73.0649 61.7829 72.7519 60.0629 70.97C58.3429 69.1882 56.5097 68.6203 54.5634 69.2665L50.7032 70.5481C49.9895 70.785 49.3476 71.3103 48.7774 72.1238ZM61.3513 51.0946C56.9195 51.3415 54.4164 50.5999 53.842 48.8699C53.0164 46.3829 54.5066 44.5076 58.3127 43.244L58.702 43.1147L61.3513 51.0946ZM74.3965 69.7767L72.6124 70.369L69.5215 61.0591L71.4133 60.7912L74.3965 69.7767ZM67.9562 50.3784L66.0536 50.6139L63.0812 41.6608L64.8653 41.0685L67.9562 50.3784ZM79.3272 68.1397L78.8082 68.312L76.1588 60.3321C80.6771 60.0565 83.2235 60.7837 83.7979 62.5138C84.6235 65.0007 83.1333 66.876 79.3272 68.1397Z" fill="#F7941E"/>
</svg>
